<svg viewBox="0 0 330 200" xmlns="http://www.w3.org/2000/svg"><g><g><g><g><g><line x1="60" y1="178" x2="55" y2="178" style="visibility: inherit;" fill="rgb(0, 0, 0)" stroke="rgb(204, 204, 204)" stroke-width="1px"></line><line x1="60" y1="158.2222222222222" x2="55" y2="158.2222222222222" style="visibility: inherit;" fill="rgb(0, 0, 0)" stroke="rgb(204, 204, 204)" stroke-width="1px"></line><line x1="60" y1="138.44444444444446" x2="55" y2="138.44444444444446" style="visibility: inherit;" fill="rgb(0, 0, 0)" stroke="rgb(204, 204, 204)" stroke-width="1px"></line><line x1="60" y1="118.66666666666669" x2="55" y2="118.66666666666669" style="visibility: inherit;" fill="rgb(0, 0, 0)" stroke="rgb(204, 204, 204)" stroke-width="1px"></line><line x1="60" y1="98.8888888888889" x2="55" y2="98.8888888888889" style="visibility: inherit;" fill="rgb(0, 0, 0)" stroke="rgb(204, 204, 204)" stroke-width="1px"></line><line x1="60" y1="79.1111111111111" x2="55" y2="79.1111111111111" style="visibility: inherit;" fill="rgb(0, 0, 0)" stroke="rgb(204, 204, 204)" stroke-width="1px"></line><line x1="60" y1="59.33333333333334" x2="55" y2="59.33333333333334" style="visibility: inherit;" fill="rgb(0, 0, 0)" stroke="rgb(204, 204, 204)" stroke-width="1px"></line><line x1="60" y1="39.55555555555555" x2="55" y2="39.55555555555555" style="visibility: inherit;" fill="rgb(0, 0, 0)" stroke="rgb(204, 204, 204)" stroke-width="1px"></line><line x1="60" y1="19.777777777777786" x2="55" y2="19.777777777777786" style="visibility: inherit;" fill="rgb(0, 0, 0)" stroke="rgb(204, 204, 204)" stroke-width="1px"></line><line x1="60" y1="0" x2="55" y2="0" style="visibility: inherit;" fill="rgb(0, 0, 0)" stroke="rgb(204, 204, 204)" stroke-width="1px"></line></g><g transform="translate(50, 0)"><text x="0" y="178" dx="0em" dy="0.3em" style="text-anchor: end; visibility: hidden; font-family: Roboto, sans-serif; font-size: 12px; font-weight: 200;" fill="rgb(50, 49, 63)" stroke="none" stroke-width="1px">-20.5</text><text x="0" y="158.2222222222222" dx="0em" dy="0.3em" style="text-anchor: end; visibility: inherit; font-family: Roboto, sans-serif; font-size: 12px; font-weight: 200;" fill="rgb(50, 49, 63)" stroke="none" stroke-width="1px">-20</text><text x="0" y="138.44444444444446" dx="0em" dy="0.3em" style="text-anchor: end; visibility: hidden; font-family: Roboto, sans-serif; font-size: 12px; font-weight: 200;" fill="rgb(50, 49, 63)" stroke="none" stroke-width="1px">-19.5</text><text x="0" y="118.66666666666669" dx="0em" dy="0.3em" style="text-anchor: end; visibility: inherit; font-family: Roboto, sans-serif; font-size: 12px; font-weight: 200;" fill="rgb(50, 49, 63)" stroke="none" stroke-width="1px">-19</text><text x="0" y="98.8888888888889" dx="0em" dy="0.3em" style="text-anchor: end; visibility: hidden; font-family: Roboto, sans-serif; font-size: 12px; font-weight: 200;" fill="rgb(50, 49, 63)" stroke="none" stroke-width="1px">-18.5</text><text x="0" y="79.1111111111111" dx="0em" dy="0.3em" style="text-anchor: end; visibility: inherit; font-family: Roboto, sans-serif; font-size: 12px; font-weight: 200;" fill="rgb(50, 49, 63)" stroke="none" stroke-width="1px">-18</text><text x="0" y="59.33333333333334" dx="0em" dy="0.3em" style="text-anchor: end; visibility: hidden; font-family: Roboto, sans-serif; font-size: 12px; font-weight: 200;" fill="rgb(50, 49, 63)" stroke="none" stroke-width="1px">-17.5</text><text x="0" y="39.55555555555555" dx="0em" dy="0.3em" style="text-anchor: end; visibility: inherit; font-family: Roboto, sans-serif; font-size: 12px; font-weight: 200;" fill="rgb(50, 49, 63)" stroke="none" stroke-width="1px">-17</text><text x="0" y="19.777777777777786" dx="0em" dy="0.3em" style="text-anchor: end; visibility: hidden; font-family: Roboto, sans-serif; font-size: 12px; font-weight: 200;" fill="rgb(50, 49, 63)" stroke="none" stroke-width="1px">-16.5</text><text x="0" y="0" dx="0em" dy="0.3em" style="text-anchor: end; visibility: hidden; font-family: Roboto, sans-serif; font-size: 12px; font-weight: 200;" fill="rgb(50, 49, 63)" stroke="none" stroke-width="1px">-16</text></g><line x1="60" y1="0" x2="60" y2="178" fill="rgb(0, 0, 0)" stroke="rgb(204, 204, 204)" stroke-width="1px"></line></g></g><g transform="translate(60, 0)" clip-path="url(#clip_0)"><clipPath id="clip_0"><rect width="270" height="178"></rect></clipPath><g><g><g><line x1="0" y1="0" x2="0" y2="178" fill="rgb(0, 0, 0)" stroke="rgb(60, 60, 60)" stroke-width="1px" opacity="0.25"></line><line x1="18" y1="0" x2="18" y2="178" fill="rgb(0, 0, 0)" stroke="rgb(60, 60, 60)" stroke-width="1px" opacity="0.25"></line><line x1="36" y1="0" x2="36" y2="178" fill="rgb(0, 0, 0)" stroke="rgb(60, 60, 60)" stroke-width="1px" opacity="0.25"></line><line x1="54" y1="0" x2="54" y2="178" fill="rgb(0, 0, 0)" stroke="rgb(60, 60, 60)" stroke-width="1px" opacity="0.25"></line><line x1="72" y1="0" x2="72" y2="178" fill="rgb(0, 0, 0)" stroke="rgb(60, 60, 60)" stroke-width="1px" opacity="0.25"></line><line x1="90" y1="0" x2="90" y2="178" fill="rgb(0, 0, 0)" stroke="rgb(60, 60, 60)" stroke-width="1px" opacity="0.25"></line><line x1="108" y1="0" x2="108" y2="178" fill="rgb(0, 0, 0)" stroke="rgb(60, 60, 60)" stroke-width="1px" opacity="0.25"></line><line x1="126" y1="0" x2="126" y2="178" fill="rgb(0, 0, 0)" stroke="rgb(60, 60, 60)" stroke-width="1px" opacity="0.25"></line><line x1="144" y1="0" x2="144" y2="178" fill="rgb(0, 0, 0)" stroke="rgb(60, 60, 60)" stroke-width="1px" opacity="0.25"></line><line x1="162" y1="0" x2="162" y2="178" fill="rgb(0, 0, 0)" stroke="rgb(60, 60, 60)" stroke-width="1px" opacity="0.25"></line><line x1="180" y1="0" x2="180" y2="178" fill="rgb(0, 0, 0)" stroke="rgb(60, 60, 60)" stroke-width="1px" opacity="0.25"></line><line x1="198" y1="0" x2="198" y2="178" fill="rgb(0, 0, 0)" stroke="rgb(60, 60, 60)" stroke-width="1px" opacity="0.25"></line><line x1="216" y1="0" x2="216" y2="178" fill="rgb(0, 0, 0)" stroke="rgb(60, 60, 60)" stroke-width="1px" opacity="0.25"></line><line x1="234" y1="0" x2="234" y2="178" fill="rgb(0, 0, 0)" stroke="rgb(60, 60, 60)" stroke-width="1px" opacity="0.25"></line><line x1="252" y1="0" x2="252" y2="178" fill="rgb(0, 0, 0)" stroke="rgb(60, 60, 60)" stroke-width="1px" opacity="0.25"></line><line x1="270" y1="0" x2="270" y2="178" fill="rgb(0, 0, 0)" stroke="rgb(60, 60, 60)" stroke-width="1px" opacity="0.25"></line></g><g><line x1="0" y1="178" x2="270" y2="178" fill="rgb(0, 0, 0)" stroke="rgb(60, 60, 60)" stroke-width="1px" opacity="0.25"></line><line x1="0" y1="158.2222222222222" x2="270" y2="158.2222222222222" fill="rgb(0, 0, 0)" stroke="rgb(60, 60, 60)" stroke-width="1px" opacity="0.25"></line><line x1="0" y1="138.44444444444446" x2="270" y2="138.44444444444446" fill="rgb(0, 0, 0)" stroke="rgb(60, 60, 60)" stroke-width="1px" opacity="0.25"></line><line x1="0" y1="118.66666666666669" x2="270" y2="118.66666666666669" fill="rgb(0, 0, 0)" stroke="rgb(60, 60, 60)" stroke-width="1px" opacity="0.25"></line><line x1="0" y1="98.8888888888889" x2="270" y2="98.8888888888889" fill="rgb(0, 0, 0)" stroke="rgb(60, 60, 60)" stroke-width="1px" opacity="0.25"></line><line x1="0" y1="79.1111111111111" x2="270" y2="79.1111111111111" fill="rgb(0, 0, 0)" stroke="rgb(60, 60, 60)" stroke-width="1px" opacity="0.25"></line><line x1="0" y1="59.33333333333334" x2="270" y2="59.33333333333334" fill="rgb(0, 0, 0)" stroke="rgb(60, 60, 60)" stroke-width="1px" opacity="0.25"></line><line x1="0" y1="39.55555555555555" x2="270" y2="39.55555555555555" fill="rgb(0, 0, 0)" stroke="rgb(60, 60, 60)" stroke-width="1px" opacity="0.25"></line><line x1="0" y1="19.777777777777786" x2="270" y2="19.777777777777786" fill="rgb(0, 0, 0)" stroke="rgb(60, 60, 60)" stroke-width="1px" opacity="0.25"></line><line x1="0" y1="0" x2="270" y2="0" fill="rgb(0, 0, 0)" stroke="rgb(60, 60, 60)" stroke-width="1px" opacity="0.25"></line></g></g></g><g><g><line x1="0" y1="-632.8888888888888" x2="270" y2="-632.8888888888888" fill="rgb(0, 0, 0)" stroke="rgb(153, 153, 153)" stroke-width="1.5px"></line></g></g><g><g><line x1="18" y1="0" x2="18" y2="178" fill="rgb(0, 0, 0)" stroke="rgb(153, 153, 153)" stroke-width="1.5px"></line></g></g><g><g><g><g><g><path stroke="rgb(255, 112, 67)" stroke-width="2px" d="M18,43.780921936035156L18.900000000000002,45.34591620474384L19.8,33.173626543492674L20.7,68.69217915106947L21.6,50.77451365356263L22.5,43.62622476351381L23.400000000000002,50.39473232215562L24.3,78.13154012388566L25.200000000000003,86.29991890104235L26.099999999999998,63.32063306555196L27,95.66677561058344L27.9,87.812595741687L28.8,77.92505434148504L29.7,97.74918013453315L30.599999999999998,101.9535567763926L31.5,88.80211397863641L32.4,75.75871348893291L33.300000000000004,65.69266473243974L34.2,79.16522298518802L35.1,73.82374568216167L36,38.83934725359231L36.9,41.60458588397945L37.800000000000004,76.07330295535876L38.7,83.22705740141157L39.6,92.9506003267873L40.5,75.88483950820608L41.4,59.34510754994601L42.300000000000004,68.7806112510221L43.2,89.96597873943965L44.1,114.34775782602325L45,117.32336626870408L45.900000000000006,131.89851186741308L46.800000000000004,119.37950483058346L47.7,89.95735727213994L48.6,100.86308734148352L49.5,92.54289385796868L50.400000000000006,78.53575964457981L51.3,92.66844965575626L52.199999999999996,96.71357808891679L53.099999999999994,88.25881004930486L54,113.21892466931779L54.9,100.36612729601603L55.8,99.20227819739617L56.699999999999996,98.13450364028138L57.6,96.18653960695477L58.5,84.35253305445349L59.4,91.92186563051844L60.3,113.0229020235598L61.199999999999996,87.69978552978667L62.1,108.42595912572402L63,85.5396615238227L63.9,108.39943911972433L64.8,118.41049043087986L65.7,131.24572784355485L66.60000000000001,141.93908819050884L67.5,125.96534572935776L68.4,114.77500783384863L69.3,111.10228866844047L70.2,111.70996321382808L71.1,123.92948042231323L72,103.82999072929677L72.9,89.87156880191733L73.8,110.03309132197612L74.7,104.29136633056619L75.60000000000001,87.26202682796931L76.5,76.63282769530824L77.4,75.5605522534047L78.3,78.81044305700699L79.2,95.60089621920908L80.10000000000001,86.98558037869819L81,110.96005663341127L81.9,94.13245621041878L82.8,120.30422520250822L83.7,117.64809466194255L84.60000000000001,101.47750359160067L85.5,98.99611026681171L86.4,99.93053622351232L87.3,102.32692732884227L88.2,92.15950579513542L89.10000000000001,105.73077948859294L90,96.2766147132725L90.9,115.5988410180052L91.80000000000001,110.49565106220592L92.7,89.74260210961295L93.60000000000001,82.24938445903742L94.5,83.88126467580193L95.4,80.25879596790932L96.30000000000001,96.6439588438565L97.2,89.7209755245392L98.10000000000001,92.00863197746075L99,83.42557587437604L99.9,96.39469977116111L100.80000000000001,110.87496958725406L101.69999999999999,85.76122913289495L102.6,90.35055042082071L103.5,90.82985104805272L104.39999999999999,99.33029760412036L105.3,90.61987494976799L106.19999999999999,96.034762144691L107.1,82.01154226608777L108,89.73212646298502L108.89999999999999,94.18192857135266L109.8,99.10280212225963L110.69999999999999,104.11108203058868L111.6,92.26355199708169L112.5,91.1564818129551L113.39999999999999,104.42246520995553L114.3,90.89509629485687L115.2,97.87347898395075L116.1,89.52602045863446L117,88.81690232172033L117.89999999999999,83.6913042085429L118.8,80.29119874408843L119.7,91.34485004644092L120.6,98.57611619256585L121.5,100.04275347784295L122.39999999999999,93.38629412196566L123.3,102.90820336467154L124.2,112.40649762458528L125.1,120.50197168155216L126,94.42690418737956L126.89999999999999,92.98943914682278L127.8,127.07030682847252L128.70000000000002,111.56139737719835L129.6,123.58711521098635L130.5,95.30465094083937L131.4,90.9870656131962L132.3,110.58923300004663L133.20000000000002,134.5233373516152L134.1,112.82644372319032L135,98.84267330509648L135.89999999999998,88.2671008620931L136.8,77.26524717152033L137.7,107.61929803549523L138.6,111.3517118740096L139.5,94.40216784117798L140.4,78.13612748034723L141.29999999999998,92.57688177716086L142.2,95.10152340562007L143.1,91.69686220144078L144,73.85426479567624L144.89999999999998,79.6562166886176L145.8,100.89831729871639L146.7,67.73666396811433L147.6,56.248653123109975L148.5,39.161970430082626L149.4,66.53711319962088L150.29999999999998,87.22602851438765L151.20000000000002,112.40914570468651L152.1,81.59914347477086L153,71.88440887505833L153.89999999999998,58.7882548224766L154.8,60.45275931642213L155.7,65.52304908628098L156.6,78.27619540231689L157.5,81.561819502258L158.4,77.9887544096509L159.29999999999998,76.78173917362112L160.20000000000002,72.71867205300654L161.1,53.99058299852099L162,67.21794818067865L162.9,76.59749136916525L163.8,106.13532158875259L164.7,93.840758569287L165.6,109.22590725774064L166.5,92.431990964496L167.4,73.23048536760379L168.29999999999998,66.63596320657312L169.20000000000002,86.68349596363844L170.1,69.64710537646546L171,54.63475805242035L171.9,67.77528983588529L172.8,73.91438320263039L173.7,69.38854892221414L174.6,73.87140668185195L175.5,73.87891114785218L176.4,73.91774847306287L177.29999999999998,86.21131459951788L178.20000000000002,89.152214950581L179.1,99.10432299102656L180,91.16410518982359L180.9,89.18650320673093L181.8,70.39820404917455L182.7,62.6181192033172L183.60000000000002,33.99411301556847L184.5,53.738016981722396L185.4,99.21108161070418L186.29999999999998,98.99760822968439L187.20000000000002,78.4867860926844L188.1,65.0280960180647L189,77.95440270631956L189.9,58.67035753607085L190.8,77.80690787689092L191.7,71.90141869416753L192.60000000000002,81.1253865396887L193.5,89.0236606378646L194.4,89.89667580549612L195.3,90.07829163924661L196.20000000000002,69.95075628581286L197.1,94.32910081185618L198,87.4644713520963L198.9,79.37541436243959L199.8,65.49520177808505L200.7,92.00476649518293L201.60000000000002,113.10527750911568L202.5,107.0794641508449L203.39999999999998,93.05814520000034L204.3,58.62041523528173L205.2,53.25416850573184L206.1,60.835674506609706L207,72.65406885039357L207.9,74.11830751045748L208.79999999999998,91.96706170081873L209.7,92.73895030068235L210.6,75.97833237638666L211.5,84.55910460260323L212.39999999999998,106.08934780928496L213.3,94.01042340208623L214.2,89.85646220283584L215.1,91.25558130024666L216,117.27125683689933L216.9,92.52656863393317L217.79999999999998,84.08410262508046L218.70000000000002,78.69712783795893L219.6,89.58113213137347L220.5,87.14840780389075L221.39999999999998,89.12794224266963L222.3,104.0325285758979L223.2,93.64457472340057L224.1,86.15443900575985L225,88.5565112363486L225.9,62.00421387020615L226.79999999999998,62.13008753971312L227.70000000000002,60.665452837507665L228.6,79.36276464800368L229.5,74.2530715836105L230.4,69.18375742031593L231.3,76.31486120087787L232.2,73.69836243712453L233.1,68.14041312362436L234,66.99586360218444L234.9,95.2479168347262L235.79999999999998,96.1307152009236L236.70000000000002,92.23864454750023L237.6,75.00820786797868L238.5,65.89267612781745L239.4,74.36569696465789L240.3,59.42787666374003L241.2,46.22966950760099L242.1,56.85120789540014L243,57.632528731023385L243.9,41.496272190134974L244.79999999999998,52.304028801821666L245.70000000000002,58.89180056079115L246.6,60.97478080686942L247.5,66.90887637947748L248.4,62.5746408196154L249.3,66.89374933477566L250.2,79.57038265788553L251.10000000000002,81.18171338748535L252,82.92023913014799L252.9,75.57213290813696L253.79999999999998,69.90338243766764L254.70000000000002,75.13547931678205L255.6,86.75749527703599L256.5,97.23732994465753L257.40000000000003,80.54287803554486L258.3,100.72197412277086" style="fill: none;" fill="none"></path></g></g></g></g><g opacity="0.2"><g><g><g><path stroke="rgb(255, 112, 67)" stroke-width="2px" d="M18,43.780921936035156L18.900000000000002,46.47427707248264L19.8,18.069750467936192L20.7,126.07759941948784L21.6,16.983928256564674L22.5,28.7526355319553L23.400000000000002,65.42893642849391L24.3,142.54985131157767L25.200000000000003,105.86736382378471L26.099999999999998,7.06357828776041L27,176.08336385091147L27.9,68.07113901774088L28.8,52.877625359429246L29.7,148.25034247504342L30.599999999999998,112.70716857910156L31.5,55.067150539822045L32.4,42.23133171929253L33.300000000000004,39.77970631917319L34.2,113.88488430447048L35.1,60.04773373074001L36,-51.43807347615559L36.9,48.74317169189453L37.800000000000004,165.0816429985894L38.7,101.70401424831813L39.6,118.06867980957031L40.5,31.79538218180338L41.4,16.611299302842884L42.300000000000004,93.16055806477863L43.2,144.70806630452475L44.1,177.35108693440756L45,125.0126003689236L45.900000000000006,169.5625457763672L46.800000000000004,87.02843899197048L47.7,13.925337897406692L48.6,129.04557885064017L49.5,71.04183451334634L50.400000000000006,42.33838992648655L51.3,129.19036017523874L52.199999999999996,107.16707611083984L53.099999999999994,66.4098129272461L54,177.72145250108508L54.9,67.15160030788844L55.8,96.19462839762372L56.699999999999996,95.37513139512804L57.6,91.15255652533638L58.5,53.77075788709852L59.4,111.48275163438585L60.3,167.5528089735243L61.199999999999996,22.25905354817709L62.1,161.98714023166232L63,26.39622328016493L63.9,167.4743448893229L64.8,144.28134240044486L65.7,164.41492462158203L66.60000000000001,169.57318369547525L67.5,84.68553161621094L68.4,85.85660807291666L69.3,101.61113993326825L70.2,113.28033362494575L71.1,155.50751580132376L72,51.888298882378464L72.9,53.7998046875L73.8,162.13509029812283L74.7,89.45343187120226L75.60000000000001,43.25430721706814L76.5,49.164538913302955L77.4,72.7895465426975L78.3,87.20890638563368L79.2,138.9912787543403L80.10000000000001,64.72162797715929L81,172.91560278998483L81.9,50.646076626247826L82.8,187.93807983398438L83.7,110.78404405381944L84.60000000000001,59.6889868842231L85.5,92.58362070719403L86.4,102.34530724419487L87.3,108.51975165473091L88.2,65.88455624050563L89.10000000000001,140.80206383599173L90,71.84488423665366L90.9,165.5319061279297L91.80000000000001,97.30783759223091L92.7,36.111963060167106L93.60000000000001,62.88519117567274L94.5,88.09841749403212L95.4,70.89750586615669L96.30000000000001,138.98697831895618L97.2,71.83039855957031L98.10000000000001,97.92046101888019L99,61.24499003092447L99.9,129.90989091661243L100.80000000000001,148.2953084309896L101.69999999999999,20.86156294080946L102.6,102.21040937635634L103.5,92.06847381591797L104.39999999999999,121.29740142822266L105.3,68.11014472113716L106.19999999999999,110.02807278103298L107.1,45.77232530381945L108,109.68388705783421L108.89999999999999,105.68123796251085L109.8,111.81946818033856L110.69999999999999,117.05362616644966L111.6,61.64681667751736L112.5,88.29555850558812L113.39999999999999,138.7048094007704L114.3,55.93727196587456L115.2,115.90722062852647L116.1,67.95427280002171L117,86.98437839084202L117.89999999999999,70.44558291965062L118.8,71.50454627143013L119.7,119.91002061631944L120.6,117.26336669921875L121.5,103.8328806559245L122.39999999999999,76.18447621663412L123.3,127.51500108506944L124.2,136.95226881239148L125.1,141.4225336710612L126,27.04294840494791L126.89999999999999,89.27469974093968L127.8,215.14308675130206L128.70000000000002,71.48281775580513L129.6,154.6643286810981L130.5,22.21627553304037L131.4,79.82943471272787L132.3,161.245730082194L133.20000000000002,196.37455325656467L134.1,56.75669352213541L135,62.705402798122826L135.89999999999998,60.93739573160806L136.8,48.83393351236978L137.7,186.06112840440537L138.6,120.99712541368272L139.5,50.6006579928928L140.4,36.10094790988499L141.29999999999998,129.89510345458984L142.2,101.62577650282118L143.1,82.8984366522895L144,27.744900173611107L144.89999999999998,94.64979129367406L145.8,155.79277801513672L146.7,-17.960655212402344L147.6,26.56099785698784L148.5,-4.99393717447918L149.4,137.28076171875L150.29999999999998,140.69093153211804L151.20000000000002,177.48809729682077L152.1,1.979030185275612L153,46.779306199815544L153.89999999999998,24.94478861490885L154.8,64.75422075059679L155.7,78.62584092881944L156.6,111.23325093587238L157.5,90.05262586805556L158.4,68.75513458251953L159.29999999999998,73.66253492567274L160.20000000000002,62.218774583604606L161.1,5.59290483262804L162,101.40049404568141L162.9,100.83638254801434L163.8,182.4678505791558L164.7,62.068787468804246L165.6,148.98466067843967L166.5,49.03265889485678L167.4,23.609390258789062L168.29999999999998,49.594205220540374L169.20000000000002,138.4909193250868L170.1,25.62116410997179L171,15.839408874511719L171.9,101.73343827989366L172.8,89.77920871310765L173.7,57.69275495741102L174.6,85.45613945855034L175.5,73.89830440945094L176.4,74.01811303032768L177.29999999999998,117.98070949978298L178.20000000000002,96.75217607286241L179.1,124.8228530883789L180,70.64476097954643L180.9,84.075926038954L181.8,21.844929165310326L182.7,42.5125952826606L183.60000000000002,-39.97688505384659L184.5,104.76079389784071L185.4,216.72391170925565L186.29999999999998,98.44594404432509L187.20000000000002,25.48211669921875L188.1,30.247753567165795L189,111.35894436306423L189.9,8.83596123589409L190.8,127.26014370388454L191.7,56.64027998182508L192.60000000000002,104.96223534478081L193.5,109.43461269802516L194.4,92.15274726019966L195.3,90.54762861463759L196.20000000000002,17.936587863498268L197.1,157.32833523220486L198,69.72469414605034L198.9,58.471435546875L199.8,29.625548468695754L200.7,160.51156277126736L201.60000000000002,167.6338382297092L202.5,91.50738016764325L203.39999999999998,56.823840671115455L204.3,-30.37457868787979L205.2,39.38655598958334L206.1,80.42802513970268L207,103.19551086425781L207.9,77.90223609076607L208.79999999999998,138.0923368665907L209.7,94.73368750678169L210.6,32.665050930447045L211.5,106.73378838433159L212.39999999999998,161.72843509250217L213.3,62.79571194118923L214.2,79.12167358398438L215.1,94.87122599283856L216,184.5017301771376L216.9,28.58061811659071L217.79999999999998,62.266833835177955L218.70000000000002,64.77594926622179L219.6,117.70789591471356L220.5,80.861690097385L221.39999999999998,94.24351331922743L222.3,142.54939863416882L223.2,66.79971906873915L224.1,66.79821014404297L225,94.76401689317491L225.9,-6.613013373480912L226.79999999999998,62.455373975965706L227.70000000000002,56.88050079345703L228.6,127.6809073554145L229.5,61.048452589246956L230.4,56.083486768934456L231.3,94.74326917860243L232.2,66.93672943115234L233.1,53.77739715576172L234,64.0380850897895L234.9,168.25770314534506L235.79999999999998,98.41206868489581L236.70000000000002,82.1806411743164L237.6,30.48080698649088L238.5,42.33605109320747L239.4,96.26192643907335L240.3,20.825122409396705L241.2,12.122474670410156L242.1,84.29969957139757L243,59.65164099799263L243.9,-0.20351621839737L244.79999999999998,80.23375108506944L245.70000000000002,75.91611395941841L246.6,66.35767957899306L247.5,82.24394056532118L248.4,51.373981899685326L249.3,78.05531650119359L250.2,112.329711066352L251.10000000000002,85.34576161702475L252,87.4129884507921L252.9,56.58294084337023L253.79999999999998,55.254030863444L254.70000000000002,88.65641784667969L255.6,116.79145050048828L256.5,124.31962670220268L257.40000000000003,37.4005847507053L258.3,152.8693873087565" style="fill: none;" fill="none"></path></g></g></g></g></g></g><g transform="translate(60, 178)" clip-path="url(#clip_1)"><clipPath id="clip_1"><rect width="270" height="22"></rect></clipPath><g><g><line x1="0" y1="0" x2="0" y2="5" style="visibility: inherit;" fill="rgb(0, 0, 0)" stroke="rgb(204, 204, 204)" stroke-width="1px"></line><line x1="18" y1="0" x2="18" y2="5" style="visibility: inherit;" fill="rgb(0, 0, 0)" stroke="rgb(204, 204, 204)" stroke-width="1px"></line><line x1="36" y1="0" x2="36" y2="5" style="visibility: inherit;" fill="rgb(0, 0, 0)" stroke="rgb(204, 204, 204)" stroke-width="1px"></line><line x1="54" y1="0" x2="54" y2="5" style="visibility: inherit;" fill="rgb(0, 0, 0)" stroke="rgb(204, 204, 204)" stroke-width="1px"></line><line x1="72" y1="0" x2="72" y2="5" style="visibility: inherit;" fill="rgb(0, 0, 0)" stroke="rgb(204, 204, 204)" stroke-width="1px"></line><line x1="90" y1="0" x2="90" y2="5" style="visibility: inherit;" fill="rgb(0, 0, 0)" stroke="rgb(204, 204, 204)" stroke-width="1px"></line><line x1="108" y1="0" x2="108" y2="5" style="visibility: inherit;" fill="rgb(0, 0, 0)" stroke="rgb(204, 204, 204)" stroke-width="1px"></line><line x1="126" y1="0" x2="126" y2="5" style="visibility: inherit;" fill="rgb(0, 0, 0)" stroke="rgb(204, 204, 204)" stroke-width="1px"></line><line x1="144" y1="0" x2="144" y2="5" style="visibility: inherit;" fill="rgb(0, 0, 0)" stroke="rgb(204, 204, 204)" stroke-width="1px"></line><line x1="162" y1="0" x2="162" y2="5" style="visibility: inherit;" fill="rgb(0, 0, 0)" stroke="rgb(204, 204, 204)" stroke-width="1px"></line><line x1="180" y1="0" x2="180" y2="5" style="visibility: inherit;" fill="rgb(0, 0, 0)" stroke="rgb(204, 204, 204)" stroke-width="1px"></line><line x1="198" y1="0" x2="198" y2="5" style="visibility: inherit;" fill="rgb(0, 0, 0)" stroke="rgb(204, 204, 204)" stroke-width="1px"></line><line x1="216" y1="0" x2="216" y2="5" style="visibility: inherit;" fill="rgb(0, 0, 0)" stroke="rgb(204, 204, 204)" stroke-width="1px"></line><line x1="234" y1="0" x2="234" y2="5" style="visibility: inherit;" fill="rgb(0, 0, 0)" stroke="rgb(204, 204, 204)" stroke-width="1px"></line><line x1="252" y1="0" x2="252" y2="5" style="visibility: inherit;" fill="rgb(0, 0, 0)" stroke="rgb(204, 204, 204)" stroke-width="1px"></line><line x1="270" y1="0" x2="270" y2="5" style="visibility: inherit;" fill="rgb(0, 0, 0)" stroke="rgb(204, 204, 204)" stroke-width="1px"></line></g><g transform="translate(0, 8)"><text x="0" y="0" dx="0em" dy="0.95em" style="text-anchor: middle; visibility: hidden; font-family: Roboto, sans-serif; font-size: 12px; font-weight: 200;" fill="rgb(50, 49, 63)" stroke="none" stroke-width="1px">-20</text><text x="18" y="0" dx="0em" dy="0.95em" style="text-anchor: middle; visibility: inherit; font-family: Roboto, sans-serif; font-size: 12px; font-weight: 200;" fill="rgb(50, 49, 63)" stroke="none" stroke-width="1px">0</text><text x="36" y="0" dx="0em" dy="0.95em" style="text-anchor: middle; visibility: hidden; font-family: Roboto, sans-serif; font-size: 12px; font-weight: 200;" fill="rgb(50, 49, 63)" stroke="none" stroke-width="1px">20</text><text x="54" y="0" dx="0em" dy="0.95em" style="text-anchor: middle; visibility: inherit; font-family: Roboto, sans-serif; font-size: 12px; font-weight: 200;" fill="rgb(50, 49, 63)" stroke="none" stroke-width="1px">40</text><text x="72" y="0" dx="0em" dy="0.95em" style="text-anchor: middle; visibility: hidden; font-family: Roboto, sans-serif; font-size: 12px; font-weight: 200;" fill="rgb(50, 49, 63)" stroke="none" stroke-width="1px">60</text><text x="90" y="0" dx="0em" dy="0.95em" style="text-anchor: middle; visibility: inherit; font-family: Roboto, sans-serif; font-size: 12px; font-weight: 200;" fill="rgb(50, 49, 63)" stroke="none" stroke-width="1px">80</text><text x="108" y="0" dx="0em" dy="0.95em" style="text-anchor: middle; visibility: hidden; font-family: Roboto, sans-serif; font-size: 12px; font-weight: 200;" fill="rgb(50, 49, 63)" stroke="none" stroke-width="1px">100</text><text x="126" y="0" dx="0em" dy="0.95em" style="text-anchor: middle; visibility: inherit; font-family: Roboto, sans-serif; font-size: 12px; font-weight: 200;" fill="rgb(50, 49, 63)" stroke="none" stroke-width="1px">120</text><text x="144" y="0" dx="0em" dy="0.95em" style="text-anchor: middle; visibility: hidden; font-family: Roboto, sans-serif; font-size: 12px; font-weight: 200;" fill="rgb(50, 49, 63)" stroke="none" stroke-width="1px">140</text><text x="162" y="0" dx="0em" dy="0.95em" style="text-anchor: middle; visibility: inherit; font-family: Roboto, sans-serif; font-size: 12px; font-weight: 200;" fill="rgb(50, 49, 63)" stroke="none" stroke-width="1px">160</text><text x="180" y="0" dx="0em" dy="0.95em" style="text-anchor: middle; visibility: hidden; font-family: Roboto, sans-serif; font-size: 12px; font-weight: 200;" fill="rgb(50, 49, 63)" stroke="none" stroke-width="1px">180</text><text x="198" y="0" dx="0em" dy="0.95em" style="text-anchor: middle; visibility: inherit; font-family: Roboto, sans-serif; font-size: 12px; font-weight: 200;" fill="rgb(50, 49, 63)" stroke="none" stroke-width="1px">200</text><text x="216" y="0" dx="0em" dy="0.95em" style="text-anchor: middle; visibility: hidden; font-family: Roboto, sans-serif; font-size: 12px; font-weight: 200;" fill="rgb(50, 49, 63)" stroke="none" stroke-width="1px">220</text><text x="234" y="0" dx="0em" dy="0.95em" style="text-anchor: middle; visibility: inherit; font-family: Roboto, sans-serif; font-size: 12px; font-weight: 200;" fill="rgb(50, 49, 63)" stroke="none" stroke-width="1px">240</text><text x="252" y="0" dx="0em" dy="0.95em" style="text-anchor: middle; visibility: hidden; font-family: Roboto, sans-serif; font-size: 12px; font-weight: 200;" fill="rgb(50, 49, 63)" stroke="none" stroke-width="1px">260</text><text x="270" y="0" dx="0em" dy="0.95em" style="text-anchor: middle; visibility: hidden; font-family: Roboto, sans-serif; font-size: 12px; font-weight: 200;" fill="rgb(50, 49, 63)" stroke="none" stroke-width="1px">280</text></g><line x1="0" y1="0" x2="270" y2="0" fill="rgb(0, 0, 0)" stroke="rgb(204, 204, 204)" stroke-width="1px"></line></g></g></g></g></svg>